<?xml version="1.0" standalone="no"?>
<!DOCTYPE svg PUBLIC "-//W3C//DTD SVG 20010904//EN"
 "http://www.w3.org/TR/2001/REC-SVG-20010904/DTD/svg10.dtd">
<svg version="1.0" xmlns="http://www.w3.org/2000/svg"
 width="24.000000pt" height="24.000000pt" viewBox="0 0 24.000000 24.000000"
 preserveAspectRatio="xMidYMid meet">

<g transform="translate(0.000000,24.000000) scale(0.100000,-0.100000)"
fill="#00ff29" stroke="none">
<path d="M141 220 c9 -5 20 -22 23 -36 10 -37 19 -22 11 15 -5 23 -12 31 -28
31 -19 -1 -20 -2 -6 -10z"/>
<path d="M177 144 c-4 -4 -4 -18 -1 -31 10 -40 -20 -63 -83 -63 -40 0 -53 -4
-53 -15 0 -12 14 -15 70 -15 64 0 70 2 70 21 0 13 8 23 20 26 14 4 19 11 15
24 -3 11 -8 28 -11 39 -5 20 -15 25 -27 14z"/>
<path d="M15 93 c11 -3 28 -12 38 -21 9 -8 17 -11 17 -6 0 18 -24 34 -50 33
-20 -1 -21 -2 -5 -6z"/>
<path d="M4 45 c-6 -15 2 -35 15 -35 5 0 9 11 9 25 0 27 -15 34 -24 10z"/>
<path d="M201 51 c-19 -12 -6 -43 16 -39 10 2 18 12 18 22 0 22 -14 29 -34 17z"/>
</g>
</svg>
