<?xml version="1.0" standalone="no"?>
<!DOCTYPE svg PUBLIC "-//W3C//DTD SVG 20010904//EN"
 "http://www.w3.org/TR/2001/REC-SVG-20010904/DTD/svg10.dtd">
<svg version="1.0" xmlns="http://www.w3.org/2000/svg"
 width="512.000000pt" height="512.000000pt" viewBox="0 0 512.000000 512.000000"
 preserveAspectRatio="xMidYMid meet">

<g transform="translate(0.000000,512.000000) scale(0.100000,-0.100000)"
fill="#00ff29" stroke="none">
<path d="M3220 5109 c-144 -28 -295 -168 -338 -314 -93 -318 174 -630 494
-577 317 52 479 395 318 672 -98 169 -285 256 -474 219z"/>
<path d="M388 4189 c-43 -22 -78 -81 -78 -129 0 -50 35 -107 80 -130 38 -20
57 -20 820 -20 763 0 782 0 820 20 45 23 80 80 80 130 0 50 -35 107 -80 130
-38 20 -57 20 -822 20 -760 -1 -784 -1 -820 -21z"/>
<path d="M2924 3896 c-63 -20 -128 -70 -162 -124 -44 -67 -628 -1252 -641
-1299 -15 -52 -14 -100 4 -159 29 -99 49 -116 481 -405 l404 -269 0 -370 0
-370 -389 0 c-222 0 -411 -4 -442 -10 -235 -45 -399 -275 -361 -506 32 -196
180 -344 376 -376 234 -39 462 127 507 367 11 60 6 156 -11 201 l-10 24 630 0
630 0 -10 -24 c-17 -45 -22 -141 -11 -201 45 -240 273 -406 507 -367 197 33
344 180 376 378 30 181 -68 372 -235 459 l-57 30 0 1075 0 1075 140 140 c149
149 169 180 156 248 -13 69 -72 117 -146 117 -58 0 -72 -9 -182 -118 -102
-101 -151 -127 -208 -111 -14 4 -140 7 -280 8 l-254 1 -276 275 c-301 299
-321 314 -434 321 -34 2 -79 -2 -102 -10z m562 -1158 c40 -18 72 -23 172 -26
121 -4 123 -4 115 -26 -4 -11 -8 -42 -7 -67 2 -82 61 -139 146 -139 59 0 89
21 194 134 49 53 92 96 97 96 4 0 7 -407 7 -905 l0 -905 -300 0 -299 0 -3 488
c-3 534 -1 515 -66 600 -15 20 -169 129 -384 273 -197 132 -358 241 -358 243
0 2 65 137 145 301 l146 298 173 -171 c125 -124 187 -178 222 -194z m-1156
-2158 c45 -23 80 -80 80 -130 0 -76 -74 -150 -150 -150 -76 0 -150 74 -150
150 0 48 35 107 78 129 48 26 93 26 142 1z m2100 0 c45 -23 80 -80 80 -130 0
-76 -74 -150 -150 -150 -76 0 -150 74 -150 150 0 48 35 107 78 129 48 26 93
26 142 1z"/>
<path d="M388 3589 c-43 -22 -78 -81 -78 -129 0 -50 35 -107 80 -130 38 -19
58 -20 520 -20 462 0 482 1 520 20 45 23 80 80 80 130 0 50 -35 107 -80 130
-38 19 -57 20 -522 20 -461 -1 -485 -2 -520 -21z"/>
<path d="M388 2989 c-43 -22 -78 -81 -78 -129 0 -50 35 -107 80 -130 35 -18
59 -20 220 -20 210 0 244 10 280 80 25 50 25 90 0 140 -36 71 -69 80 -282 80
-162 -1 -187 -3 -220 -21z"/>
<path d="M1765 1780 l-139 -279 -396 -3 c-380 -3 -397 -4 -441 -24 -60 -28
-125 -93 -152 -153 -30 -64 -30 -178 0 -242 27 -60 92 -125 152 -153 45 -21
55 -21 571 -21 l525 0 57 28 c31 15 71 44 88 63 27 31 366 692 358 699 -2 1
-84 56 -184 123 -126 84 -197 138 -236 181 -30 34 -57 61 -59 61 -2 0 -67
-126 -144 -280z"/>
</g>
</svg>
