<svg width="188" height="40" viewBox="0 0 188 40" fill="none" xmlns="http://www.w3.org/2000/svg">
<path d="M12.56 9.06C14.4133 9.06 15.9067 9.52 17.04 10.44C18.1733 11.36 19 12.66 19.52 14.34C20.0533 16.02 20.32 18.0133 20.32 20.32C20.32 22.5067 20 24.46 19.36 26.18C18.72 27.8867 17.7933 29.2333 16.58 30.22C15.3667 31.1933 13.8933 31.68 12.16 31.68C10.0933 31.68 8.41333 30.94 7.12 29.46V39.2L0.8 39.86V9.76H6.4L6.68 12.14C7.54667 11.0333 8.49333 10.2467 9.52 9.78C10.5467 9.3 11.56 9.06 12.56 9.06ZM10.6 13.72C9.86667 13.72 9.22 13.94 8.66 14.38C8.1 14.82 7.58667 15.42 7.12 16.18V25.14C7.56 25.7933 8.02 26.2733 8.5 26.58C8.99333 26.8867 9.57333 27.04 10.24 27.04C11.36 27.04 12.2333 26.5333 12.86 25.52C13.4867 24.4933 13.8 22.7867 13.8 20.4C13.8 18.64 13.6733 17.28 13.42 16.32C13.1667 15.3467 12.8 14.6733 12.32 14.3C11.84 13.9133 11.2667 13.72 10.6 13.72ZM42.6644 24.88C42.6644 25.68 42.771 26.26 42.9844 26.62C43.211 26.98 43.571 27.2533 44.0644 27.44L42.7644 31.6C41.511 31.48 40.451 31.2067 39.5844 30.78C38.731 30.34 38.0577 29.68 37.5644 28.8C36.751 29.7733 35.711 30.5 34.4444 30.98C33.1777 31.4467 31.8844 31.68 30.5644 31.68C28.3777 31.68 26.631 31.06 25.3244 29.82C24.031 28.5667 23.3844 26.96 23.3844 25C23.3844 22.6933 24.2844 20.9133 26.0844 19.66C27.8977 18.4067 30.4444 17.78 33.7244 17.78H36.5844V16.98C36.5844 15.8733 36.2244 15.0533 35.5044 14.52C34.7977 13.9867 33.7577 13.72 32.3844 13.72C31.7044 13.72 30.831 13.82 29.7644 14.02C28.6977 14.2067 27.631 14.48 26.5644 14.84L25.1044 10.64C26.4777 10.12 27.9044 9.72667 29.3844 9.46C30.8777 9.19333 32.211 9.06 33.3844 9.06C36.5444 9.06 38.8777 9.70667 40.3844 11C41.9044 12.28 42.6644 14.1333 42.6644 16.56V24.88ZM32.7444 27.16C33.4244 27.16 34.1377 26.96 34.8844 26.56C35.631 26.1467 36.1977 25.5667 36.5844 24.82V21.38H35.0244C33.2644 21.38 31.971 21.6533 31.1444 22.2C30.3177 22.7333 29.9044 23.52 29.9044 24.56C29.9044 25.3733 30.151 26.0133 30.6444 26.48C31.151 26.9333 31.851 27.16 32.7444 27.16ZM67.8888 29.76C67.0621 30.2933 66.0621 30.7467 64.8888 31.12C63.7154 31.4933 62.3954 31.68 60.9288 31.68C58.1554 31.68 56.0954 30.9733 54.7488 29.56C53.4021 28.1333 52.7288 26.2 52.7288 23.76V14.12H48.2688V9.76H52.7288V5.16L59.0488 4.4V9.76H65.8888L65.2688 14.12H59.0488V23.76C59.0488 24.8133 59.2888 25.5667 59.7688 26.02C60.2488 26.4733 61.0154 26.7 62.0688 26.7C62.8154 26.7 63.4954 26.6133 64.1088 26.44C64.7354 26.2533 65.2954 26.02 65.7888 25.74L67.8888 29.76ZM84.0131 26.7C84.8798 26.7 85.6931 26.5333 86.4531 26.2C87.2265 25.8533 87.9931 25.4133 88.7531 24.88L91.5731 28.88C90.6398 29.68 89.4998 30.3467 88.1531 30.88C86.8198 31.4133 85.3265 31.68 83.6731 31.68C81.3931 31.68 79.4331 31.2133 77.7931 30.28C76.1531 29.3333 74.8931 28.0267 74.0131 26.36C73.1331 24.68 72.6931 22.7333 72.6931 20.52C72.6931 18.3067 73.1398 16.34 74.0331 14.62C74.9398 12.8867 76.2198 11.5267 77.8731 10.54C79.5398 9.55333 81.5131 9.06 83.7931 9.06C85.4065 9.06 86.8398 9.28667 88.0931 9.74C89.3598 10.18 90.5198 10.84 91.5731 11.72L88.8331 15.52C88.1131 15.0133 87.3531 14.62 86.5531 14.34C85.7531 14.06 84.9198 13.92 84.0531 13.92C82.6265 13.92 81.4731 14.4267 80.5931 15.44C79.7265 16.44 79.2931 18.1333 79.2931 20.52C79.2931 22.08 79.4998 23.3133 79.9131 24.22C80.3265 25.1133 80.8865 25.7533 81.5931 26.14C82.3131 26.5133 83.1198 26.7 84.0131 26.7ZM96.9375 31V26.76H99.7375V13.96H96.9375V9.76H104.558L105.718 14.54C106.478 12.7133 107.444 11.3533 108.618 10.46C109.804 9.56666 111.251 9.12 112.958 9.12C113.678 9.12 114.318 9.18 114.878 9.3C115.438 9.40667 115.964 9.56 116.458 9.76L114.538 14.98C114.151 14.8733 113.764 14.7933 113.378 14.74C112.991 14.6867 112.564 14.66 112.098 14.66C110.711 14.66 109.491 15.2267 108.438 16.36C107.398 17.4933 106.604 18.9333 106.058 20.68V26.76H110.258V31H96.9375ZM111.318 18.64V12.44L112.258 9.76H116.458L115.278 18.64H111.318ZM138.602 24.88C138.602 25.68 138.709 26.26 138.922 26.62C139.149 26.98 139.509 27.2533 140.002 27.44L138.702 31.6C137.449 31.48 136.389 31.2067 135.522 30.78C134.669 30.34 133.995 29.68 133.502 28.8C132.689 29.7733 131.649 30.5 130.382 30.98C129.115 31.4467 127.822 31.68 126.502 31.68C124.315 31.68 122.569 31.06 121.262 29.82C119.969 28.5667 119.322 26.96 119.322 25C119.322 22.6933 120.222 20.9133 122.022 19.66C123.835 18.4067 126.382 17.78 129.662 17.78H132.522V16.98C132.522 15.8733 132.162 15.0533 131.442 14.52C130.735 13.9867 129.695 13.72 128.322 13.72C127.642 13.72 126.769 13.82 125.702 14.02C124.635 14.2067 123.569 14.48 122.502 14.84L121.042 10.64C122.415 10.12 123.842 9.72667 125.322 9.46C126.815 9.19333 128.149 9.06 129.322 9.06C132.482 9.06 134.815 9.70667 136.322 11C137.842 12.28 138.602 14.1333 138.602 16.56V24.88ZM128.682 27.16C129.362 27.16 130.075 26.96 130.822 26.56C131.569 26.1467 132.135 25.5667 132.522 24.82V21.38H130.962C129.202 21.38 127.909 21.6533 127.082 22.2C126.255 22.7333 125.842 23.52 125.842 24.56C125.842 25.3733 126.089 26.0133 126.582 26.48C127.089 26.9333 127.789 27.16 128.682 27.16ZM158.226 0.659998C159.773 0.659998 161.14 0.786665 162.326 1.04C163.513 1.28 164.573 1.6 165.506 2L163.766 6.12C163.033 5.84 162.28 5.64 161.506 5.52C160.733 5.38667 159.966 5.32 159.206 5.32C157.953 5.32 157.053 5.54667 156.506 6C155.973 6.45333 155.706 7.20667 155.706 8.26V11.1H162.626L161.926 15.48H155.706V31H149.426V15.48H144.966V11.1H149.426V8.02C149.426 6.62 149.76 5.36667 150.426 4.26C151.093 3.15333 152.08 2.28 153.386 1.64C154.693 0.986665 156.306 0.659998 158.226 0.659998ZM187.811 29.76C186.984 30.2933 185.984 30.7467 184.811 31.12C183.637 31.4933 182.317 31.68 180.851 31.68C178.077 31.68 176.017 30.9733 174.671 29.56C173.324 28.1333 172.651 26.2 172.651 23.76V14.12H168.191V9.76H172.651V5.16L178.971 4.4V9.76H185.811L185.191 14.12H178.971V23.76C178.971 24.8133 179.211 25.5667 179.691 26.02C180.171 26.4733 180.937 26.7 181.991 26.7C182.737 26.7 183.417 26.6133 184.031 26.44C184.657 26.2533 185.217 26.02 185.711 25.74L187.811 29.76Z" fill="white"/>
</svg>
